<?xml version="1.0" encoding="utf-8"?>
<!-- Generator: Adobe Illustrator 16.0.0, SVG Export Plug-In . SVG Version: 6.00 Build 0)  -->
<!DOCTYPE svg PUBLIC "-//W3C//DTD SVG 1.1//EN" "http://www.w3.org/Graphics/SVG/1.1/DTD/svg11.dtd">
<svg version="1.1" id="Layer_1" xmlns="http://www.w3.org/2000/svg" xmlns:xlink="http://www.w3.org/1999/xlink" x="0px" y="0px"
	 width="550px" height="400px" viewBox="0 0 550 400" enable-background="new 0 0 550 400" xml:space="preserve">
<path fill-rule="evenodd" clip-rule="evenodd" fill="none" stroke="#FFDE3E" stroke-width="2" stroke-linecap="round" stroke-miterlimit="3" d="
	M199.267,216.316c2.559-0.6,5.238-0.898,8.037-0.898c9.156-0.161,17.053,2.718,23.69,8.635c3.838-1.359,7.957-2.059,12.354-2.1
	c3.999-0.08,7.777,0.461,11.335,1.62c6.517-5.838,14.254-8.817,23.209-8.936c0.505-0.005,1.003-0.005,1.5,0
	c8.48,0.247,15.838,3.165,22.069,8.756c3.838-1.399,7.977-2.14,12.415-2.22c3.998-0.039,7.777,0.541,11.336,1.74
	c6.477-5.878,14.193-8.876,23.149-8.996c1.919,0,3.798,0.12,5.638,0.359 M351.961,222.193c-1.16-0.119-2.339-0.179-3.538-0.179
	c-5.719,0.079-10.757,1.639-15.114,4.677c1.959,1.32,3.817,2.86,5.577,4.619c0.56,0.479,1.08,1.019,1.56,1.618
	c2.398-1.359,5.117-2.06,8.156-2.098 M340.445,232.929c1.601,1.721,2.979,3.539,4.139,5.458 M301.462,223.394
	c-2.718,1.119-5.257,2.519-7.616,4.198c-1.68,1.199-3.299,2.56-4.857,4.078c-0.56,0.68-1.119,1.319-1.681,1.919
	c-2.318,2.679-4.138,5.559-5.456,8.637c2.837,0.239,5.558,0.82,8.155,1.739c0.96-1.8,2.14-3.519,3.539-5.158
	c0.359-0.52,0.761-1,1.199-1.439c1.599-1.6,3.279-2.938,5.038-4.019c2.359-1.52,4.897-2.638,7.616-3.358
	c2.079-0.479,4.259-0.739,6.537-0.779c1.839,0,3.618,0.16,5.339,0.479c2.837,0.48,5.496,1.42,7.975,2.819
	c2.12,1.158,4.1,2.679,5.938,4.558c0.36,0.319,0.72,0.64,1.08,0.959c1.439,1.56,2.658,3.219,3.658,4.979
	c1.399-0.441,2.858-0.801,4.378-1.081 M290.007,243.965c2.759,0.959,5.398,2.319,7.918,4.077c0.799-1.56,1.858-3.019,3.178-4.377
	c0.92-0.88,1.879-1.681,2.88-2.399c2.318-1.6,4.856-2.6,7.615-2.998c0.88-0.161,1.8-0.241,2.759-0.241c0.24,0,0.5,0.021,0.78,0.061
	c2.838,0,5.478,0.619,7.916,1.858c1.64,0.88,3.219,2.02,4.738,3.42c0.959,0.959,1.799,1.998,2.52,3.117
	c2.398-1.479,4.938-2.639,7.616-3.477 M281.852,242.226c-0.82-0.076-1.64-0.124-2.459-0.15c-0.501-0.02-1.001-0.03-1.5-0.03
	c-0.72,0-1.439,0.041-2.158,0.12c-2.919,0.2-5.719,0.72-8.397,1.559c-2.639,0.801-5.158,1.94-7.557,3.419
	c-1.799,1.119-3.499,2.398-5.098,3.838c2.798,0.96,5.497,2.24,8.097,3.839c4.357-3.078,9.416-4.637,15.173-4.679
	c0.119,0,0.2,0,0.24,0c0.418,0,0.817,0.021,1.199,0.061h0.06c5.397,0.2,10.195,1.801,14.394,4.799
	c2.359-1.68,4.898-3.06,7.616-4.139c-1.119-1.04-2.298-1.979-3.537-2.819 M330.311,246.482c-1.799,1.121-3.499,2.4-5.098,3.839
	c2.559,0.8,4.997,1.898,7.315,3.299 M301.462,250.861c3.838-1.439,7.977-2.199,12.415-2.279c3.998-0.04,7.777,0.54,11.336,1.739
	 M325.213,222.914c2.838,0.879,5.537,2.14,8.096,3.777 M293.846,227.592c-4.227-3.051-9.045-4.68-14.453-4.889
	c-0.476-0.022-0.956-0.032-1.439-0.029c-5.758,0.04-10.816,1.619-15.173,4.738c1.959,1.279,3.818,2.798,5.577,4.558
	c0.52,0.561,1.04,1.079,1.56,1.559c2.519-1.318,5.318-1.999,8.396-2.039c0.363-0.004,0.725-0.004,1.08,0
	c2.859,0.119,5.498,0.82,7.915,2.1 M230.994,224.053c-2.759,1.159-5.318,2.579-7.677,4.26c-1.68,1.199-3.298,2.577-4.858,4.137
	c-0.56,0.6-1.119,1.199-1.679,1.799c-1.959,2.319-3.579,4.778-4.858,7.378c-0.24,0.438-0.46,0.898-0.66,1.38
	c0.24,0,0.459,0.02,0.66,0.06c2.599,0.239,5.098,0.778,7.497,1.618c0.959-1.839,2.139-3.578,3.538-5.217
	c0.44-0.48,0.88-0.939,1.319-1.38c1.559-1.639,3.199-2.999,4.918-4.077c2.399-1.52,4.958-2.619,7.676-3.299
	c2.119-0.481,4.318-0.721,6.597-0.721c1.799,0,3.559,0.121,5.277,0.359c2.839,0.481,5.518,1.439,8.037,2.88
	c2.039,1.119,4.018,2.619,5.937,4.498c0.32,0.319,0.64,0.64,0.96,0.959c1.439,1.601,2.659,3.278,3.658,5.037 M219.419,244.684
	c2.798,0.959,5.477,2.299,8.036,4.02c0.839-1.561,1.899-3.019,3.178-4.379c0.88-0.88,1.82-1.7,2.819-2.459
	c2.279-1.519,4.818-2.479,7.617-2.879c0.919-0.159,1.839-0.24,2.759-0.24c0.28-0.04,0.54-0.04,0.78,0
	c2.839,0,5.458,0.641,7.856,1.92c1.679,0.84,3.259,1.998,4.738,3.478c1.04,0.92,1.898,1.92,2.579,2.999 M227.455,248.703
	c1.239,0.838,2.418,1.779,3.539,2.817c3.838-1.398,7.957-2.118,12.354-2.158c3.999-0.08,7.777,0.459,11.335,1.618 M275.734,242.165
	c-1.44-3.119-3.379-5.997-5.818-8.637 M262.78,227.412c-2.6-1.601-5.298-2.88-8.097-3.839 M279.571,276.891
	c1.081-5.918,3.66-11.196,7.736-15.833c-2.417-1.316-5.056-2.036-7.915-2.159c-0.355-0.004-0.717-0.004-1.08,0
	c-3.078,0.04-5.877,0.739-8.396,2.1c4.277,4.676,7.017,9.994,8.217,15.952 M229.194,261.417c2.399-1.48,4.958-2.579,7.676-3.299
	c2.119-0.48,4.318-0.72,6.597-0.72c1.799,0,3.559,0.14,5.277,0.42c2.839,0.48,5.518,1.419,8.037,2.818
	c2.039,1.159,4.018,2.659,5.937,4.498c0.32,0.32,0.64,0.66,0.96,1.021c2.918,3.158,4.958,6.676,6.117,10.555 M262.78,254.819
	c1.959,1.279,3.818,2.799,5.577,4.558c0.52,0.56,1.04,1.101,1.56,1.621 M237.83,267.174c1.04-0.359,2.12-0.619,3.239-0.779
	c0.919-0.121,1.839-0.18,2.759-0.18c0.28-0.04,0.54-0.04,0.78,0c2.839,0,5.458,0.64,7.856,1.919
	c1.679,0.839,3.259,1.979,4.738,3.418c1.119,1,2.019,2.08,2.699,3.239c0.119,0.199,0.259,0.42,0.419,0.659 M288.028,276.17
	c1.04-3.598,2.879-6.896,5.518-9.896c0.359-0.52,0.761-0.998,1.199-1.438c1.599-1.6,3.279-2.958,5.038-4.078
	c2.359-1.479,4.897-2.599,7.616-3.358c2.079-0.479,4.259-0.74,6.537-0.779c1.839,0,3.618,0.18,5.339,0.54
	c2.438,0.399,4.757,1.14,6.956,2.218 M298.824,273.952c0.64-1.001,1.398-1.96,2.278-2.88c0.92-0.88,1.879-1.679,2.88-2.398
	c2.318-1.6,4.856-2.599,7.615-3c0.88-0.158,1.8-0.219,2.759-0.178c0.24-0.041,0.5-0.021,0.78,0.06c0.76,0,1.52,0.06,2.279,0.179
	 M287.308,261.058c0.562-0.64,1.121-1.279,1.681-1.92c1.559-1.56,3.178-2.938,4.857-4.138 M223.317,228.312
	c-4.638-3.36-9.936-4.979-15.893-4.859c-2.079,0-4.058,0.221-5.938,0.66 M204.905,232.389c0.919-0.159,1.878-0.24,2.878-0.24
	c3.318,0,6.317,0.701,8.996,2.1 M222.837,256.078c0.16-0.118,0.32-0.239,0.48-0.358c-0.84-0.6-1.699-1.14-2.58-1.62 M223.317,255.72
	c2.358-1.681,4.917-3.078,7.677-4.199"/>
<path fill-rule="evenodd" clip-rule="evenodd" fill="none" stroke="#0099FF" stroke-width="7" stroke-linecap="round" stroke-miterlimit="3" d="
	M330.95,257c-15.334,15.333-33.834,23-55.5,23c-21.667,0-40.167-7.667-55.5-23c-15.333-15.333-23-33.833-23-55.5
	c0-21.667,7.667-40.167,23-55.5c15.333-15.333,33.833-23,55.5-23c21.666,0,40.166,7.667,55.5,23c15.333,15.333,23,33.833,23,55.5
	C353.95,223.167,346.283,241.667,330.95,257z"/>
<text transform="matrix(1 0 0 1 215.1494 196.4326)"><tspan x="0" y="0" fill="#050505" font-family="'Roboto-Thin'" font-size="29.3389">Smart</tspan><tspan x="78.118" y="0" fill="#050505" font-family="'RobotoCondensed-Regular'" font-size="29.3389">Pay</tspan></text>
</svg>
